<svg width="32" height="32" viewBox="0 0 32 32" fill="none" xmlns="http://www.w3.org/2000/svg">
<path d="M24 24H21.3333V26.6666H24V24ZM24 24H26.6667V16H29.3333V13.3333H26.6667V10.6666H29.3333V7.99998H24V24ZM2.66667 29.3333H8V26.6666H2.66667V29.3333ZM8 32H18.6667V29.3333H8V32ZM8 26.6666H10.6667V24H8V26.6666ZM5.33333 24H8V21.3333H5.33333V24ZM2.66667 21.3333H5.33333V16H2.66667V21.3333ZM0 16H2.66667V10.6666H5.33333V7.99998H2.66667V5.33331H0V16ZM18.6667 29.3333H21.3333V26.6666H18.6667V29.3333ZM5.33333 13.3333H16V7.99998H13.3333V10.6666H5.33333V13.3333ZM16 7.99998H24V5.33331H16V7.99998Z" fill="white"/>
</svg>
