<svg width="20" height="26" viewBox="0 0 20 26" fill="none" xmlns="http://www.w3.org/2000/svg">
<path d="M9.27511 25.2675C9.48681 25.4182 9.74023 25.4992 10.0001 25.4992C10.26 25.4992 10.5134 25.4182 10.7251 25.2675C11.1051 24.9987 20.0364 18.55 20.0001 10.5C20.0001 4.98625 15.5139 0.5 10.0001 0.5C4.48636 0.5 0.000110047 4.98625 0.000110047 10.4937C-0.03614 18.55 8.89511 24.9987 9.27511 25.2675ZM10.0001 3C14.1364 3 17.5001 6.36375 17.5001 10.5063C17.5264 16.0538 12.0151 21.035 10.0001 22.6688C7.98636 21.0338 2.47386 16.0512 2.50011 10.5C2.50011 6.36375 5.86386 3 10.0001 3Z" fill="white"/>
</svg>
