<svg width="30" height="30" viewBox="0 0 30 30" fill="none" xmlns="http://www.w3.org/2000/svg">
<path d="M13.1925 7.79998L8.9638 2.91873C8.4763 2.35623 7.58255 2.35873 7.0163 2.92623L3.5388 6.40998C2.5038 7.44623 2.20755 8.98498 2.8063 10.2187C6.38275 17.6253 12.356 23.6069 19.7575 27.1937C20.99 27.7925 22.5275 27.4962 23.5625 26.46L27.0725 22.9437C27.6413 22.375 27.6425 21.4762 27.075 20.9887L22.175 16.7825C21.6625 16.3425 20.8663 16.4 20.3525 16.915L18.6475 18.6225C18.5605 18.7143 18.4456 18.7749 18.3206 18.7948C18.1956 18.8147 18.0676 18.7928 17.9563 18.7325C15.1695 17.1275 12.8577 14.8127 11.2563 12.0237C11.1957 11.9123 11.1736 11.784 11.1935 11.6588C11.2134 11.5335 11.2742 11.4184 11.3663 11.3312L13.0663 9.62998C13.5813 9.11248 13.6375 8.31373 13.1925 7.79998Z" stroke="white" stroke-width="2" stroke-linecap="round" stroke-linejoin="round"/>
</svg>
