<svg width="30" height="30" viewBox="0 0 30 30" fill="none" xmlns="http://www.w3.org/2000/svg">
<path d="M15 17.5C17.7575 17.5 20 15.2575 20 12.5C20 9.7425 17.7575 7.5 15 7.5C12.2425 7.5 10 9.7425 10 12.5C10 15.2575 12.2425 17.5 15 17.5ZM15 10C16.3788 10 17.5 11.1212 17.5 12.5C17.5 13.8788 16.3788 15 15 15C13.6212 15 12.5 13.8788 12.5 12.5C12.5 11.1212 13.6212 10 15 10Z" fill="white"/>
<path d="M14.2751 27.2675C14.4868 27.4182 14.7402 27.4992 15.0001 27.4992C15.26 27.4992 15.5134 27.4182 15.7251 27.2675C16.1051 26.9987 25.0364 20.55 25.0001 12.5C25.0001 6.98625 20.5139 2.5 15.0001 2.5C9.48636 2.5 5.00011 6.98625 5.00011 12.4937C4.96386 20.55 13.8951 26.9987 14.2751 27.2675ZM15.0001 5C19.1364 5 22.5001 8.36375 22.5001 12.5063C22.5264 18.0538 17.0151 23.035 15.0001 24.6688C12.9864 23.0338 7.47386 18.0512 7.50011 12.5C7.50011 8.36375 10.8639 5 15.0001 5Z" fill="white"/>
</svg>
