<svg width="48" height="48" viewBox="0 0 48 48" fill="none" xmlns="http://www.w3.org/2000/svg">
<path d="M18.75 2.15625V3.84375H20.8027L19.4611 15.4034C18.1043 16.1669 17.0272 16.9422 16.2567 17.772C15.4111 18.6825 14.9062 19.7004 14.9062 20.7692V41.7694C14.9062 42.8381 15.3789 43.8203 16.0639 44.5626C16.7487 45.3048 17.6771 45.8438 18.7217 45.8438H29.25C30.3028 45.8438 31.2413 45.3075 31.9309 44.5645C32.6206 43.8218 33.0938 42.8381 33.0938 41.7694V20.7694C33.0938 19.7004 32.5888 18.6825 31.7434 17.772C30.9728 16.9423 29.8957 16.167 28.539 15.4034L27.1974 3.84375H29.25V2.15625H18.75ZM22.5015 3.84375H25.4985L26.2573 10.3807C26.0391 10.2897 25.7904 10.2332 25.5 10.2332C24.5304 10.2332 23.9004 10.8355 23.4234 11.2431C22.9463 11.6505 22.8626 11.912 22.5 11.8487C22.0608 11.7718 21.8956 11.2446 21.6966 10.779L22.5015 3.84375ZM25.4312 11.9168C25.4532 11.9171 25.4762 11.9183 25.5 11.9206C25.9769 11.9682 26.2186 12.4796 26.55 12.9027L26.6636 13.8813C26.6093 13.6798 26.4957 13.5028 26.3399 13.3769C26.1842 13.2509 25.9947 13.1827 25.7999 13.1826C25.5612 13.1826 25.3323 13.2847 25.1635 13.4664C24.9947 13.6482 24.8999 13.8947 24.8999 14.1517C24.8999 14.4088 24.9947 14.6553 25.1635 14.8371C25.3323 15.0188 25.5612 15.1209 25.7999 15.1209C26.0335 15.1207 26.2578 15.0226 26.4255 14.8475C26.5932 14.6724 26.6911 14.4339 26.6985 14.1825L26.9626 16.4573L27.3498 16.6659C28.7982 17.4458 29.852 18.2153 30.5065 18.9202C31.1611 19.6252 31.4062 20.2227 31.4062 20.7693V24.7715H29.0092C28.4632 23.5425 27.7197 22.5334 26.8455 21.8349C25.9712 21.1364 24.9934 20.7703 24 20.7694C23.0068 20.7706 22.0293 21.1369 21.1553 21.8354C20.2813 22.534 19.5381 23.5428 18.9922 24.7716H16.5938V20.7694C16.5938 20.2228 16.8388 19.6252 17.4934 18.9202C18.1479 18.2153 19.2018 17.4458 20.6501 16.6659L21.0373 16.4573L21.4167 13.1896C21.7064 13.3924 22.0617 13.536 22.5 13.536C23.4597 13.536 24.0509 12.9263 24.5194 12.5261C24.9587 12.1509 25.1002 11.9137 25.4312 11.9168ZM24 15.6C23.7613 15.6 23.5324 15.7021 23.3636 15.8839C23.1948 16.0656 23.1 16.3121 23.1 16.5692C23.1 16.8262 23.1948 17.0727 23.3636 17.2545C23.5324 17.4363 23.7613 17.5384 24 17.5384C24.1182 17.5384 24.2352 17.5133 24.3444 17.4646C24.4536 17.4159 24.5528 17.3445 24.6364 17.2545C24.72 17.1645 24.7863 17.0577 24.8315 16.9401C24.8767 16.8225 24.9 16.6965 24.9 16.5692C24.9 16.4419 24.8767 16.3159 24.8315 16.1983C24.7863 16.0807 24.72 15.9739 24.6364 15.8839C24.5528 15.7939 24.4536 15.7225 24.3444 15.6738C24.2352 15.6251 24.1182 15.6 24 15.6ZM25.8 17.0597C25.5613 17.0597 25.3324 17.1618 25.1636 17.3435C24.9949 17.5253 24.9 17.7718 24.9 18.0288C24.9 18.1561 24.9233 18.2821 24.9685 18.3997C25.0137 18.5173 25.08 18.6241 25.1636 18.7141C25.2472 18.8041 25.3464 18.8755 25.4556 18.9242C25.5648 18.9729 25.6818 18.998 25.8 18.998C26.0387 18.998 26.2676 18.8959 26.4364 18.7141C26.6052 18.5323 26.7 18.2858 26.7 18.0288C26.7 17.7717 26.6052 17.5252 26.4364 17.3435C26.2676 17.1617 26.0387 17.0596 25.8 17.0596V17.0597ZM24 23.1562C25.2581 23.1562 26.2406 24.0803 26.8667 25.2605C27.0506 25.6072 27.2101 25.9848 27.3446 26.387H31.5V28.0745H27.7354C27.8063 28.5807 27.8438 29.1093 27.8438 29.6542C27.8438 30.8123 27.6773 31.8989 27.3694 32.8487H31.5V34.5362H26.5748C25.9523 35.4725 25.0777 36.1515 24 36.1515C22.9222 36.1515 22.0477 35.4725 21.4252 34.5362H16.5V32.8487H20.6306C20.3227 31.899 20.1562 30.8124 20.1562 29.6541C20.1562 29.1092 20.1938 28.5806 20.2646 28.0744H16.5V26.3869H20.6554C20.7899 25.9847 20.9494 25.6072 21.1333 25.2605C21.7596 24.0803 22.7419 23.1562 24 23.1562ZM24 24.8438C23.6013 24.8438 23.0836 25.1854 22.6239 26.0515C22.1644 26.9178 21.8438 28.2137 21.8438 29.654C21.8438 31.0942 22.1644 32.3899 22.6239 33.256C23.0836 34.1223 23.6013 34.4638 24 34.4638C24.3987 34.4638 24.9164 34.1223 25.3761 33.256C25.8356 32.3898 26.1562 31.0942 26.1562 29.6539C26.1562 28.2136 25.8356 26.9175 25.3761 26.0513C24.9164 25.1853 24.3987 24.8438 24 24.8438ZM16.5938 36.1514H19.9191C21.0271 37.6814 22.485 38.5341 24 38.5383C25.5164 38.5356 26.9759 37.6828 28.0849 36.1514H31.4062V41.7693C31.4062 42.3158 31.1294 42.9474 30.6941 43.4162C30.2588 43.8849 29.6971 44.1562 29.25 44.1562H18.7216C18.2946 44.1562 17.737 43.8874 17.3041 43.4181C16.871 42.9487 16.5938 42.3158 16.5938 41.7692V36.1512V36.1514Z" fill="black"/>
</svg>
