<svg width="32" height="32" viewBox="0 0 32 32" fill="none" xmlns="http://www.w3.org/2000/svg">
<path d="M30.4701 3.04999V10.67H19.8101V12.19H21.3301V13.71H22.8501V12.19H30.4701V28.95H32.0001V3.04999H30.4701Z" fill="white"/>
<path d="M28.95 28.95H30.47V30.48H28.95V28.95ZM28.95 1.52002H30.47V3.05002H28.95V1.52002ZM3.04002 30.48H28.95V32H3.04002V30.48ZM25.9 4.57002H27.42V7.62002H25.9V4.57002ZM22.85 3.05002H25.9V4.57002H22.85V3.05002ZM22.85 13.71H24.38V21.33H22.85V13.71ZM22.85 7.62002H25.9V9.14002H22.85V7.62002ZM21.33 21.33H22.85V22.86H21.33V21.33ZM21.33 4.57002H22.85V7.62002H21.33V4.57002ZM19.81 22.86H21.33V24.38H19.81V22.86ZM12.19 15.24H10.66V19.81H12.19V21.33H13.71V22.86H18.28V21.33H19.81V19.81H21.33V15.24H19.81V13.71H18.28V12.19H13.71V13.71H12.19V15.24ZM15.23 15.24H18.28V18.29H16.76V16.76H15.23V15.24ZM12.19 9.14002H19.81V10.67H12.19V9.14002ZM12.19 24.38H19.81V25.9H12.19V24.38ZM10.66 22.86H12.19V24.38H10.66V22.86ZM9.14002 21.33H10.66V22.86H9.14002V21.33ZM7.61002 13.71H9.14002V21.33H7.61002V13.71ZM1.52002 28.95H3.04002V30.48H1.52002V28.95Z" fill="white"/>
<path d="M1.52 12.19H3.04V13.71H7.61V12.19H9.14V13.71H10.66V12.19H12.19V10.67H10.66V1.52H28.95V0H3.04V1.52H1.52V3.05H3.04V10.67H1.52V3.05H0V28.95H1.52V12.19ZM7.61 1.52H9.14V10.67H7.61V1.52ZM4.57 1.52H6.09V10.67H4.57V1.52Z" fill="white"/>
</svg>
